<?xml version="1.0" standalone="no"?>
<!DOCTYPE svg PUBLIC "-//W3C//DTD SVG 20010904//EN"
 "http://www.w3.org/TR/2001/REC-SVG-20010904/DTD/svg10.dtd">
<svg version="1.0" xmlns="http://www.w3.org/2000/svg"
 width="1280.000000pt" height="620.000000pt" viewBox="0 0 1280.000000 620.000000"
 preserveAspectRatio="xMidYMid meet">
<metadata>
Created by potrace 1.15, written by Peter Selinger 2001-2017
</metadata>
<g transform="translate(0.000000,620.000000) scale(0.100000,-0.100000)"
fill="#9c27b0" stroke="none">
<path d="M3763 6170 c-35 -16 -63 -32 -63 -35 0 -3 19 4 42 16 23 12 58 27 77
34 20 8 29 14 21 14 -8 1 -43 -12 -77 -29z"/>
<path d="M3860 6184 c-30 -8 -81 -28 -114 -44 -66 -33 -70 -35 -60 -19 17 27
-36 -15 -96 -77 -36 -37 -59 -63 -51 -59 9 5 12 3 9 -6 -3 -8 -11 -14 -19 -14
-16 0 -75 -114 -84 -160 -3 -17 3 -8 13 20 26 69 62 138 69 131 3 -3 -4 -21
-16 -41 -108 -183 -82 -426 64 -610 41 -52 42 -55 8 -20 -21 22 -49 54 -61 70
-15 20 -19 22 -12 7 6 -12 38 -51 72 -85 33 -34 55 -54 48 -44 -18 25 3 21 26
-5 12 -13 13 -18 4 -13 -10 6 -9 2 3 -12 14 -16 17 -31 13 -59 l-6 -39 11 35
c8 26 8 40 -1 53 -9 15 -9 18 2 15 7 -3 14 -12 16 -20 2 -9 -35 -199 -82 -422
-48 -224 -86 -408 -86 -410 0 -2 -23 -6 -52 -9 -31 -4 -87 -24 -138 -49 -115
-57 -122 -58 -53 -10 10 7 2 5 -17 -6 -19 -10 -34 -22 -33 -28 2 -12 -27 -44
-40 -44 -6 0 -2 10 9 23 10 12 -3 2 -29 -23 -45 -43 -68 -72 -27 -35 11 10 20
14 20 8 0 -5 -14 -22 -32 -39 -18 -16 -26 -20 -18 -9 15 20 14 20 -8 1 -23
-20 -30 -32 -11 -20 7 4 10 3 7 -2 -2 -5 -21 -43 -41 -84 -40 -82 -66 -192
-63 -271 1 -27 1 -49 0 -49 -2 0 -269 -88 -595 -195 -326 -107 -598 -195 -604
-195 -5 0 -23 19 -38 43 l-29 42 34 -38 c18 -20 36 -37 40 -37 4 0 -8 17 -27
38 -19 20 -37 35 -41 34 -9 -5 -64 50 -59 58 3 4 -5 16 -18 26 -18 16 -19 16
-8 2 8 -11 9 -18 3 -18 -11 0 -27 19 -27 32 0 3 -4 10 -9 15 -5 5 -6 2 -1 -6
5 -9 3 -12 -6 -9 -8 3 -14 10 -14 16 0 5 -4 14 -9 19 -5 5 -6 3 -2 -4 9 -17
12 -18 -74 19 -66 28 -89 32 -192 36 -139 5 -213 -13 -318 -77 -36 -21 -66
-38 -67 -38 0 1 4 26 9 56 17 82 -1 175 -56 288 -25 52 -44 99 -41 103 3 5 0
12 -6 16 -8 5 -9 3 -4 -7 8 -12 6 -12 -9 0 -9 8 -15 20 -12 27 3 7 -2 18 -10
24 -8 7 -14 9 -14 5 0 -4 -7 -2 -15 5 -8 6 -13 17 -12 22 1 6 -6 12 -16 13
-26 5 -48 25 -40 38 3 5 1 7 -4 4 -6 -4 -37 5 -69 20 -48 22 -78 27 -162 31
-115 5 -172 -8 -255 -59 -52 -32 -62 -35 -51 -16 4 6 -16 -10 -45 -38 -48 -47
-69 -72 -36 -45 8 7 15 8 15 2 0 -11 -20 -29 -35 -32 -5 -1 -12 -4 -15 -7 -3
-4 1 -3 7 1 18 10 17 5 -12 -51 -29 -57 -55 -153 -55 -203 0 -58 28 -149 73
-240 53 -106 52 -104 37 -95 -9 6 -11 4 -6 -4 5 -7 11 -10 14 -7 7 7 42 -24
42 -37 0 -5 -8 -3 -17 4 -10 7 0 -6 22 -29 38 -40 61 -58 35 -27 -20 24 5 17
26 -7 12 -13 13 -18 4 -13 -13 8 -13 7 -1 -8 15 -19 26 -23 15 -6 -4 7 -3 10
2 7 129 -61 171 -71 281 -66 74 3 99 8 157 36 38 18 71 31 73 29 2 -3 -2 -17
-9 -33 -7 -18 -12 -78 -12 -154 0 -112 3 -132 27 -193 29 -74 70 -138 132
-207 22 -25 31 -38 20 -30 -15 11 -14 7 4 -13 25 -28 43 -38 21 -12 -7 8 -8
15 -2 15 12 0 34 -25 27 -32 -3 -3 3 -11 12 -19 17 -13 17 -13 3 5 -17 22 -14
21 55 -15 28 -15 69 -32 91 -39 l42 -13 -4 -141 c-2 -77 -7 -251 -10 -386 l-6
-246 -73 -33 c-40 -18 -85 -46 -101 -62 -35 -37 -56 -38 -23 -1 13 15 5 9 -19
-13 -23 -21 -42 -41 -42 -44 0 -2 9 4 20 14 11 10 20 14 20 8 0 -13 -32 -42
-44 -40 -5 1 -15 -9 -24 -23 l-14 -25 22 25 c25 30 24 26 -20 -65 -29 -59 -35
-83 -38 -157 -5 -97 7 -157 44 -231 28 -56 29 -61 12 -51 -8 4 -10 3 -5 -2 5
-5 12 -9 15 -9 13 0 32 -16 32 -27 0 -6 -7 -5 -17 3 -10 7 2 -8 27 -34 42 -45
67 -64 40 -32 -20 24 5 17 26 -7 12 -13 13 -18 4 -13 -13 8 -13 7 -1 -8 15
-18 26 -23 16 -7 -9 14 7 12 29 -5 28 -21 134 -54 188 -58 71 -6 166 10 226
38 63 29 66 29 56 13 -4 -8 -3 -10 2 -5 5 5 9 14 9 19 0 6 6 13 14 16 9 3 11
0 6 -8 -6 -9 -4 -11 4 -6 7 5 10 11 6 14 -7 8 76 93 86 87 3 -3 13 3 20 12 12
14 12 16 0 9 -9 -6 -12 -4 -9 5 3 8 10 14 15 14 6 0 15 4 20 9 5 6 2 6 -6 1
-11 -6 -13 -4 -6 11 49 118 49 119 49 224 0 86 -4 115 -22 158 -12 30 -20 58
-16 63 3 5 0 8 -7 7 -6 -2 -14 3 -17 11 -3 9 0 11 9 6 8 -5 11 -4 6 1 -5 5
-14 9 -20 9 -5 0 -12 6 -15 14 -3 9 0 11 9 5 12 -7 12 -5 0 9 -7 9 -17 15 -21
12 -7 -4 -63 49 -61 59 1 3 -2 6 -6 7 -21 3 -43 21 -37 31 4 6 3 8 -3 5 -6 -4
-34 4 -63 16 l-53 22 7 239 c3 132 6 302 6 378 0 85 4 138 10 138 6 0 11 -12
11 -27 l1 -28 7 29 c3 16 15 33 26 37 13 6 7 7 -20 4 -37 -4 -36 -4 15 14 30
10 80 31 110 47 72 38 74 39 65 24 -6 -9 -4 -11 4 -6 7 5 10 11 7 14 -7 7 13
32 26 32 6 0 5 -8 -3 -17 -7 -10 11 5 40 32 53 51 106 116 82 100 -16 -9 -15
-8 20 60 41 77 60 148 67 241 l7 85 599 198 600 197 45 -60 c59 -78 147 -144
247 -186 68 -29 94 -34 184 -38 127 -5 199 10 306 67 66 34 75 37 86 23 11
-13 11 -14 -2 -7 -8 4 -4 -4 9 -18 14 -15 27 -27 29 -27 3 0 -3 9 -13 20 -39
43 3 17 45 -27 25 -27 32 -37 15 -23 -22 18 -19 13 10 -18 21 -23 41 -42 44
-42 2 0 -4 9 -14 20 -10 11 -14 20 -9 20 6 0 26 -17 45 -37 21 -24 25 -30 9
-18 -14 11 -7 0 15 -23 21 -23 41 -42 44 -42 2 0 -6 11 -19 25 -13 14 -19 25
-14 25 5 0 30 -21 54 -47 25 -27 32 -37 15 -23 -17 14 -10 4 15 -23 24 -26 46
-47 49 -47 2 0 -6 11 -19 25 -13 14 -19 25 -14 25 5 0 30 -21 54 -47 25 -26
34 -39 20 -28 -14 11 -7 0 15 -23 21 -23 41 -42 44 -42 2 0 -6 11 -19 25 -13
14 -19 25 -14 25 5 0 30 -21 54 -47 25 -27 32 -37 15 -23 -22 18 -19 13 10
-18 21 -23 41 -42 44 -42 2 0 -4 9 -14 20 -10 11 -14 20 -9 20 6 0 28 -19 49
-42 29 -31 31 -36 10 -18 -27 23 -27 21 4 -13 34 -36 56 -52 31 -22 -27 32 8
13 41 -22 31 -34 31 -36 4 -13 -17 14 -10 3 15 -23 24 -26 46 -47 49 -47 2 0
-6 11 -19 25 -13 14 -19 25 -14 25 5 0 30 -21 54 -47 25 -26 32 -37 15 -23
-27 23 -27 21 4 -13 34 -36 56 -52 31 -22 -27 32 8 13 41 -22 21 -24 25 -30 9
-18 -14 11 -7 0 15 -23 21 -23 41 -42 44 -42 2 0 -6 11 -19 25 -39 41 -7 28
34 -14 l38 -39 -26 -66 c-82 -204 -49 -412 94 -586 42 -51 45 -58 16 -30 -21
19 -51 56 -68 83 -36 54 -46 61 -23 17 9 -17 46 -61 82 -98 36 -37 60 -59 53
-49 -18 25 3 21 26 -5 10 -12 13 -18 7 -14 -19 10 -16 1 4 -15 14 -12 16 -12
9 0 -6 9 -4 12 5 9 8 -3 14 -10 14 -16 0 -5 4 -14 9 -19 5 -5 6 -3 2 5 -10 17
3 15 44 -8 19 -11 28 -19 20 -20 -9 0 -49 -17 -90 -37 -41 -21 -79 -39 -84
-41 -5 -3 -5 1 -1 8 5 9 4 11 -4 6 -6 -4 -9 -11 -7 -15 3 -4 -13 -25 -34 -46
-22 -22 -40 -35 -40 -31 0 13 -30 -15 -41 -38 -8 -17 -6 -16 11 4 25 30 24 26
-19 -62 -65 -133 -63 -269 5 -404 19 -37 34 -73 34 -78 -1 -6 -12 10 -26 37
-13 26 -27 47 -29 47 -3 0 6 -23 20 -50 14 -28 30 -48 34 -45 5 2 16 -6 25
-20 23 -35 19 -45 -5 -15 -16 19 -18 20 -10 4 5 -11 18 -27 27 -35 16 -12 17
-12 9 1 -4 8 11 -3 33 -24 23 -22 39 -43 37 -46 -3 -4 3 -14 12 -21 14 -12 16
-12 9 0 -6 9 -4 12 5 9 8 -3 14 -10 14 -16 0 -5 4 -14 9 -19 5 -5 6 -3 2 5
-10 16 -3 15 41 -8 21 -10 67 -27 103 -36 104 -26 184 -14 339 53 10 5 12 2 6
-8 -5 -8 -5 -11 1 -6 5 5 9 14 9 19 0 6 6 13 14 16 9 3 11 0 5 -9 -7 -12 -5
-12 9 0 9 7 15 17 12 21 -2 4 7 18 20 30 14 13 25 20 25 16 0 -13 29 14 52 48
15 24 12 22 -16 -9 l-36 -40 34 52 c57 87 79 156 80 253 0 57 -5 102 -18 137
-9 29 -14 58 -10 64 5 8 3 9 -6 4 -10 -6 -12 -4 -7 9 4 10 3 15 -3 11 -5 -3
-21 17 -35 44 -29 57 -32 74 -9 45 14 -18 15 -18 4 3 -6 13 -16 22 -23 20 -7
-1 -12 7 -12 18 -1 11 -6 19 -11 18 -11 -2 -71 55 -76 72 -2 6 -6 9 -10 8 -4
-2 -22 6 -39 16 l-32 20 29 6 c58 13 100 28 156 56 64 32 81 37 52 13 -18 -14
-18 -15 4 -4 13 7 21 14 18 17 -7 8 13 33 26 33 6 0 4 -8 -3 -18 -7 -9 -1 -6
13 7 15 13 26 27 25 30 -1 4 19 31 46 61 26 30 47 52 47 48 0 -4 -15 -24 -32
-45 -19 -22 -23 -30 -9 -18 27 23 71 82 53 71 -17 -10 -15 4 7 40 46 75 66
155 66 264 0 58 -3 121 -7 140 -8 34 -6 36 40 60 44 24 550 301 890 486 84 46
156 84 160 84 4 0 13 -10 21 -23 13 -21 12 -21 -4 -5 -17 16 -21 15 -67 -8
-26 -13 -48 -27 -48 -29 0 -3 22 6 48 19 l49 25 28 -27 c16 -15 23 -19 16 -9
-8 9 -9 17 -4 17 13 0 45 -35 38 -42 -3 -3 2 -11 12 -19 14 -12 15 -12 9 0 -6
9 -4 12 5 9 8 -3 14 -10 14 -15 0 -6 4 -15 9 -20 5 -5 6 -3 2 5 -10 17 -7 16
67 -18 35 -17 99 -38 141 -46 126 -26 298 3 402 67 36 22 48 24 38 7 -4 -7 -3
-8 5 -4 6 4 9 11 6 16 -3 5 5 16 19 25 19 13 29 14 46 5 11 -6 18 -15 15 -20
-3 -5 0 -12 6 -16 8 -5 9 -3 4 6 -12 19 7 11 105 -49 47 -29 85 -56 85 -61 0
-4 4 -12 9 -17 5 -5 6 -3 2 5 -4 6 -4 12 0 12 16 0 273 -163 269 -171 -3 -4 0
-11 6 -15 8 -4 9 -3 5 4 -4 7 -4 12 0 12 16 0 273 -163 269 -171 -3 -4 0 -11
6 -15 8 -4 9 -3 5 4 -10 17 5 15 31 -3 20 -14 21 -21 16 -117 -6 -123 11 -207
59 -301 43 -81 43 -81 27 -72 -23 15 28 -49 77 -95 26 -25 42 -37 35 -27 -19
25 2 21 25 -5 12 -13 13 -18 4 -13 -13 8 -13 7 -1 -8 15 -19 26 -23 15 -6 -4
7 -1 10 7 7 8 -3 14 -10 14 -16 0 -5 4 -14 9 -19 5 -5 6 -2 1 6 -4 7 -4 12 1
10 5 -2 46 -19 91 -38 l82 -35 -5 -205 c-2 -113 -7 -278 -10 -367 l-6 -160
-66 -30 c-36 -16 -70 -31 -75 -33 -6 -2 -6 2 -1 10 7 12 5 12 -9 0 -9 -7 -15
-16 -12 -20 5 -9 -92 -107 -103 -104 -4 1 -9 -1 -12 -4 -3 -4 1 -3 8 1 17 10
15 2 -8 -36 -76 -123 -79 -314 -6 -444 31 -56 33 -68 5 -34 l-21 25 14 -25 c9
-14 18 -23 21 -20 6 6 47 -30 47 -43 0 -5 -8 -3 -17 4 -10 7 -2 -4 16 -24 34
-36 56 -52 31 -22 -20 24 5 17 26 -7 12 -13 13 -18 4 -13 -13 8 -13 7 -1 -8
15 -18 26 -23 16 -7 -9 15 7 12 30 -6 31 -23 171 -64 220 -64 66 0 143 19 207
51 64 32 73 35 62 16 -5 -8 -2 -8 9 2 20 16 23 26 5 15 -9 -5 -9 -2 1 9 16 20
36 23 25 5 -4 -7 9 3 29 21 37 34 51 55 22 31 -8 -7 -15 -8 -15 -3 0 12 41 50
45 43 2 -3 7 -1 12 4 5 5 3 6 -4 2 -18 -10 -16 -2 7 36 76 123 79 314 6 444
-29 53 -31 58 -13 48 8 -5 8 -3 -2 9 -7 9 -17 14 -22 12 -7 -5 -36 35 -31 43
1 1 1 1 0 0 -8 -5 -47 25 -45 34 1 7 -3 12 -8 13 -6 0 -41 14 -78 30 l-67 30
5 320 c3 176 8 343 11 371 5 49 7 52 38 58 17 3 65 23 106 43 41 21 79 39 84
41 5 3 5 -2 1 -9 -5 -8 -4 -11 1 -6 5 5 9 12 9 15 0 13 16 32 27 32 7 0 6 -6
-2 -17 -7 -10 18 13 54 51 37 38 72 79 77 90 6 12 -2 5 -18 -14 -15 -19 -45
-53 -66 -75 -30 -31 -28 -26 11 21 108 135 146 232 147 379 0 55 -2 120 -5
144 l-5 44 290 159 c160 88 333 182 385 210 111 59 293 158 366 199 l51 29 34
-37 c19 -21 25 -31 14 -23 -20 15 -20 14 -1 -8 20 -23 32 -30 21 -12 -10 17
12 11 26 -7 10 -11 10 -14 2 -9 -19 11 -16 1 4 -15 14 -12 16 -12 9 0 -6 9 -4
12 5 9 8 -3 14 -10 14 -16 0 -5 4 -14 9 -19 5 -5 6 -3 2 5 -10 16 -7 16 60
-14 165 -73 362 -64 509 22 46 26 60 30 49 12 -5 -7 -3 -8 5 -4 7 5 10 11 7
14 -7 7 13 32 26 32 6 0 5 -7 -2 -15 -24 -28 -4 -15 26 17 24 27 25 29 4 13
-18 -14 -15 -8 10 22 39 46 51 53 43 24 -11 -42 19 -162 63 -252 47 -97 53
-114 28 -83 -14 18 -15 18 -4 -4 7 -13 14 -21 17 -18 8 7 33 -13 33 -26 0 -6
-8 -4 -17 3 -15 11 -15 10 1 -8 10 -13 22 -21 26 -18 9 5 52 -40 45 -47 -3 -3
2 -11 12 -19 14 -12 15 -12 9 0 -6 9 -5 12 5 9 8 -3 13 -10 12 -16 -1 -5 5
-16 15 -24 15 -12 16 -11 3 4 -17 22 -8 23 22 3 111 -73 346 -73 449 -1 27 19
42 21 32 4 -4 -8 -3 -10 2 -5 5 5 9 14 9 20 0 5 6 12 14 15 9 3 11 0 6 -9 -4
-8 15 8 44 36 48 47 69 72 36 45 -8 -7 -15 -8 -15 -2 0 13 31 39 39 32 7 -6
60 90 61 110 0 8 -14 -14 -30 -49 -17 -35 -33 -62 -36 -59 -2 3 5 21 16 41 28
47 60 162 60 216 0 62 -26 153 -66 233 -19 38 -32 74 -28 80 5 7 3 8 -5 4 -8
-6 -11 -2 -9 10 2 11 -2 18 -9 17 -13 -3 -34 20 -37 40 -3 23 -26 46 -40 41
-12 -5 -43 22 -40 35 1 3 -2 5 -6 4 -5 -1 -39 12 -77 30 -64 30 -74 32 -183
32 -105 0 -120 -3 -174 -28 -67 -31 -70 -32 -60 -14 4 7 3 9 -2 4 -5 -5 -9
-14 -9 -19 0 -6 -6 -13 -14 -16 -9 -3 -11 0 -6 8 5 9 4 11 -4 6 -6 -4 -9 -11
-7 -15 3 -4 -9 -21 -27 -38 l-32 -30 3 86 c5 123 -8 174 -86 335 -3 5 2 5 9 1
8 -5 11 -4 6 1 -5 5 -14 9 -20 9 -5 0 -12 6 -15 14 -3 9 0 11 9 6 8 -5 6 1 -5
13 -10 12 -22 20 -26 17 -9 -5 -72 59 -65 67 3 3 -2 11 -12 19 -11 9 -14 10
-9 2 4 -7 3 -13 -2 -13 -11 0 -30 21 -30 33 0 5 -4 12 -8 15 -4 4 -4 1 1 -7 5
-9 3 -12 -6 -9 -8 3 -14 10 -14 16 0 5 -4 14 -9 19 -5 5 -6 3 -2 -4 9 -17 12
-18 -76 17 -43 16 -100 32 -128 36 -27 4 -50 10 -50 15 0 5 -27 176 -60 380
-33 205 -59 373 -58 374 9 7 48 25 54 25 4 0 -1 -7 -12 -16 -18 -14 -18 -15 4
-4 13 7 21 14 18 17 -7 8 13 33 26 33 6 0 5 -8 -3 -17 -7 -10 13 7 44 37 53
51 76 79 42 50 -8 -7 -15 -8 -15 -2 0 11 31 39 37 34 3 -2 8 0 11 4 4 4 1 4
-5 0 -18 -10 -16 -3 11 49 55 103 61 274 12 380 -14 31 -23 61 -20 66 3 5 0 8
-8 7 -7 -2 -13 6 -13 17 0 11 -5 20 -12 20 -6 0 -31 20 -55 45 -23 24 -34 38
-23 30 17 -12 18 -12 7 0 -7 8 -20 15 -30 15 -9 0 -16 6 -14 13 1 8 -2 11 -7
8 -5 -3 -35 6 -67 21 -78 35 -213 43 -298 19 -31 -9 -62 -14 -68 -10 -6 4 -8
3 -5 -3 4 -6 0 -14 -9 -17 -24 -9 -31 -7 -14 5 13 9 13 10 0 6 -8 -2 -15 -9
-15 -15 0 -12 -34 -41 -48 -42 -5 0 -5 6 -1 13 5 8 3 8 -9 -2 -9 -7 -15 -17
-12 -21 5 -9 -29 -42 -37 -35 -2 3 -15 -7 -29 -22 -13 -14 -18 -23 -10 -18 9
5 12 3 9 -6 -3 -8 -10 -14 -15 -14 -6 0 -15 -4 -20 -9 -5 -5 -3 -6 5 -2 17 10
15 2 -10 -47 -66 -130 -61 -306 12 -425 26 -42 25 -54 -1 -22 l-21 25 14 -25
c9 -14 19 -25 24 -25 15 0 34 -16 34 -27 0 -6 -7 -5 -17 3 -10 7 0 -6 22 -29
38 -41 53 -52 40 -32 -3 6 -2 10 4 10 10 0 26 -19 26 -32 0 -3 4 -10 9 -15 5
-5 6 -2 1 6 -5 9 -3 12 6 9 8 -3 14 -10 14 -16 0 -5 4 -14 9 -19 6 -5 6 -2 1
6 -6 11 -4 13 11 7 53 -22 122 -45 144 -50 25 -5 26 -7 83 -368 32 -200 61
-371 63 -380 4 -13 -8 -24 -45 -43 -57 -28 -65 -30 -55 -12 4 7 3 9 -2 4 -5
-5 -9 -14 -9 -19 0 -6 -6 -13 -14 -16 -9 -3 -11 0 -5 9 6 12 5 12 -9 0 -10 -8
-15 -16 -12 -19 2 -3 -21 -32 -53 -66 -104 -112 -154 -241 -153 -396 0 -47 5
-100 11 -119 5 -19 9 -35 7 -36 -6 -4 -809 -441 -945 -515 l-153 -83 -24 23
c-13 13 -22 26 -20 30 3 4 -5 16 -17 26 -12 11 -18 13 -14 7 9 -17 -10 -17
-21 0 -4 6 -8 15 -8 19 0 3 -4 10 -9 15 -5 5 -6 2 -1 -6 5 -9 3 -12 -6 -9 -8
3 -14 10 -14 15 0 6 -4 15 -9 20 -5 5 -6 3 -2 -4 10 -17 7 -17 -55 11 -83 36
-155 50 -254 48 -106 -2 -190 -22 -262 -62 -58 -33 -68 -36 -57 -17 4 7 3 9
-2 4 -5 -5 -9 -13 -9 -18 0 -6 -11 -17 -26 -26 -24 -14 -28 -14 -77 17 -29 17
-50 36 -47 40 3 5 0 12 -6 16 -8 4 -9 3 -5 -4 9 -15 1 -15 -25 -1 -11 5 -17
14 -14 19 3 5 0 12 -6 16 -8 4 -9 3 -5 -4 10 -16 1 -15 -35 3 -16 9 -27 20
-24 25 3 5 0 12 -6 16 -8 4 -9 3 -5 -4 9 -15 1 -15 -25 -1 -11 5 -17 14 -14
19 3 5 0 12 -6 16 -8 4 -9 3 -5 -4 11 -18 -3 -15 -40 9 -19 11 -31 26 -28 31
4 7 2 8 -4 4 -14 -9 -55 12 -47 24 3 5 0 12 -6 16 -8 4 -9 3 -5 -4 9 -15 1
-15 -25 -1 -11 5 -17 14 -14 19 3 5 0 12 -6 16 -8 4 -9 3 -5 -4 9 -15 1 -15
-25 -1 -11 5 -17 14 -14 19 3 5 0 12 -6 16 -8 4 -9 3 -5 -4 9 -15 1 -15 -25
-1 -11 5 -17 14 -14 19 3 5 0 12 -6 16 -8 4 -9 3 -5 -4 12 -19 -3 -14 -65 24
-33 19 -57 39 -54 44 3 5 0 12 -6 16 -8 4 -9 3 -5 -4 9 -15 1 -15 -25 -1 -11
5 -17 14 -14 19 3 5 0 12 -6 16 -8 4 -9 3 -5 -4 9 -15 1 -15 -25 -1 -11 5 -17
14 -14 19 3 5 0 12 -6 16 -8 4 -9 3 -5 -4 9 -15 1 -15 -24 -2 -17 9 -18 20
-14 113 3 56 1 119 -3 140 -5 26 -8 -5 -8 -98 0 -88 -3 -134 -10 -131 -5 2 -9
8 -8 14 2 6 6 42 9 80 10 106 -9 192 -73 341 -5 10 -2 12 8 6 8 -5 11 -5 6 1
-5 5 -14 9 -20 9 -5 0 -12 6 -15 14 -3 9 0 11 9 6 8 -5 11 -4 6 1 -5 5 -14 9
-20 9 -5 0 -12 6 -15 14 -3 10 0 11 9 5 18 -11 -45 69 -68 87 -10 7 -7 0 8
-16 49 -58 52 -69 6 -26 -25 24 -44 47 -42 51 3 4 -5 16 -18 26 -18 16 -19 16
-8 2 7 -10 9 -18 3 -18 -11 0 -31 22 -29 32 1 3 -2 10 -7 15 -5 5 -6 2 -1 -6
5 -9 3 -12 -6 -9 -8 3 -14 10 -14 16 0 5 -4 14 -9 19 -5 5 -6 3 -2 -4 9 -17
13 -18 -74 16 l-75 30 3 323 c2 178 6 341 9 363 6 36 7 38 14 15 6 -23 7 -23
8 -3 1 12 9 27 19 33 14 8 11 9 -13 5 -18 -4 0 9 45 31 96 49 100 50 70 24
-23 -21 -23 -21 -2 -9 13 8 23 19 23 24 0 14 71 85 79 80 4 -3 16 5 26 17 11
12 13 18 7 14 -16 -9 -16 -1 -2 25 5 11 15 16 21 13 7 -4 8 -3 4 5 -4 6 3 37
15 69 32 81 32 223 0 304 -12 32 -19 62 -16 68 4 6 1 9 -6 8 -6 -2 -14 3 -17
11 -3 9 0 11 9 6 8 -5 11 -4 6 1 -5 5 -14 9 -20 9 -7 0 -12 7 -12 15 -1 21
-15 41 -24 35 -8 -4 -56 41 -56 53 0 4 -4 6 -9 4 -13 -4 -36 19 -29 31 3 5 1
7 -4 4 -6 -4 -37 5 -69 20 -54 25 -70 28 -179 28 -115 0 -123 -1 -189 -32 -77
-37 -80 -38 -70 -20 5 8 2 8 -9 -2 -20 -16 -23 -26 -4 -15 8 5 8 2 -2 -9 -16
-20 -36 -23 -25 -4 4 6 -12 -6 -35 -28 -40 -38 -56 -60 -26 -35 8 7 15 8 15 3
0 -12 -40 -50 -47 -45 -3 2 -8 0 -11 -4 -4 -4 -1 -4 6 0 17 10 15 2 -12 -52
-65 -129 -66 -257 0 -416 5 -15 4 -17 -6 -11 -9 5 -11 4 -6 -4 4 -6 11 -9 15
-6 5 2 21 -14 35 -38 l27 -42 -32 35 c-17 19 -27 26 -21 15 12 -23 52 -62 52
-50 0 4 7 2 15 -5 8 -7 13 -16 10 -20 -2 -4 5 -16 18 -26 18 -16 19 -16 8 -1
-17 22 2 23 20 0 8 -9 42 -29 77 -45 l62 -28 -5 -183 c-3 -100 -8 -243 -10
-317 -3 -74 -5 -158 -5 -186 0 -51 -1 -52 -33 -58 -18 -3 -66 -23 -107 -43
-41 -21 -79 -39 -84 -41 -5 -3 -5 2 -1 9 5 8 4 11 -1 6 -5 -5 -9 -14 -9 -19 0
-6 -6 -13 -14 -16 -9 -3 -11 0 -6 9 4 8 -20 -13 -54 -46 -57 -55 -81 -84 -46
-55 8 7 15 8 15 2 0 -12 -31 -39 -38 -32 -2 3 -11 -6 -20 -20 l-14 -25 21 25
c28 33 27 18 -2 -28 -68 -107 -95 -258 -73 -391 7 -40 10 -73 7 -75 -160 -88
-469 -257 -601 -328 -96 -53 -246 -134 -332 -182 -86 -47 -160 -86 -164 -86
-3 0 -4 6 -1 14 3 8 -6 24 -21 37 -14 13 -20 16 -13 7 22 -29 -3 -21 -30 9
-18 20 -19 24 -4 13 20 -15 20 -14 1 8 -20 23 -32 30 -20 11 4 -7 1 -10 -7 -7
-8 3 -14 10 -14 15 0 6 -4 15 -9 20 -5 5 -6 3 -2 -4 9 -17 0 -16 -27 1 -12 8
-57 26 -99 40 -62 21 -96 26 -180 26 -120 0 -182 -15 -277 -67 l-64 -34 -36
37 c-30 32 -31 34 -6 14 27 -23 27 -22 -4 13 -34 36 -56 52 -31 22 18 -22 -4
-19 -23 3 -10 10 -14 22 -10 26 5 4 1 6 -7 4 -8 -2 -14 2 -13 8 1 7 -8 20 -20
30 l-22 19 19 -22 c36 -43 0 -23 -44 24 -25 26 -32 37 -15 23 27 -23 27 -21
-4 13 -34 36 -56 52 -31 22 7 -8 8 -15 3 -15 -5 0 -29 21 -53 47 -35 37 -37
41 -10 18 l35 -30 -34 38 c-34 36 -48 47 -36 27 15 -24 -14 -7 -46 27 -31 34
-31 36 -4 13 21 -18 19 -13 -10 18 -21 23 -41 42 -44 42 -2 0 4 -9 14 -20 39
-43 -3 -17 -45 27 -25 26 -32 37 -15 23 27 -23 27 -21 -4 13 -34 36 -56 52
-31 22 28 -34 -9 -12 -45 27 -29 31 -31 36 -10 18 27 -23 27 -21 -4 13 -34 36
-56 52 -31 22 28 -34 -9 -12 -45 27 -29 31 -31 36 -10 18 21 -18 19 -13 -10
18 -21 23 -41 42 -44 42 -2 0 4 -9 14 -20 10 -11 14 -20 8 -20 -12 0 -65 55
-58 61 2 3 -12 21 -32 40 -21 19 -31 26 -24 17 26 -35 -6 -17 -44 24 -28 29
-31 35 -10 18 23 -20 21 -15 -10 21 -22 25 -42 44 -44 42 -2 -1 4 -12 14 -23
22 -24 9 -27 -16 -4 -17 15 -17 19 -3 47 81 156 82 353 2 516 -18 36 -34 70
-36 75 -3 5 0 6 7 2 17 -11 13 0 -6 15 -15 12 -16 12 -8 -1 8 -13 7 -13 -8 -1
-20 16 -23 36 -4 25 6 -4 1 5 -12 19 -30 33 -42 36 -15 5 11 -13 5 -10 -13 6
-18 16 -30 32 -28 36 3 4 -5 16 -18 26 -18 16 -19 16 -8 2 19 -26 -2 -22 -25
4 -10 12 -13 18 -6 14 18 -10 15 -1 -5 15 -14 12 -16 12 -9 0 6 -9 5 -12 -5
-9 -8 3 -13 10 -12 16 2 6 -4 9 -11 6 -11 -4 -5 39 24 178 22 101 60 285 86
409 l47 227 39 6 c39 6 121 36 116 42 -2 1 -28 -6 -58 -16 -30 -11 -64 -19
-75 -19 -11 0 12 11 51 23 40 13 93 35 119 49 57 32 69 34 35 6 l-25 -21 25
14 c14 9 25 19 25 24 0 15 16 34 27 34 6 0 5 -7 -3 -17 -7 -10 14 8 47 40 33
31 68 72 78 90 22 37 12 28 -28 -26 -15 -21 -30 -36 -33 -33 -3 3 7 19 21 37
33 39 62 96 87 168 61 176 13 380 -124 529 -34 37 -53 60 -42 52 15 -11 14 -7
-4 13 -25 28 -43 38 -21 12 7 -8 8 -15 2 -15 -11 0 -30 21 -30 33 0 5 -4 12
-8 15 -4 4 -4 1 0 -5 10 -18 2 -16 -42 6 -114 58 -258 75 -372 45z m-181 -77
c-2 -2 -33 -30 -69 -62 l-65 -59 60 62 c33 34 64 62 69 62 5 0 7 -1 5 -3z
m3541 -690 c0 -2 -10 -12 -22 -23 l-23 -19 19 23 c18 21 26 27 26 19z m3560
-1 c0 -2 -8 -10 -17 -17 -16 -13 -17 -12 -4 4 13 16 21 21 21 13z m-6390 -129
c0 -2 -12 -14 -27 -28 l-28 -24 24 28 c23 25 31 32 31 24z m-503 -169 c-2 -7
-40 -183 -83 -390 -53 -253 -83 -378 -91 -378 -7 0 -13 5 -13 11 0 5 5 7 12 3
7 -5 8 -3 3 5 -12 20 147 761 163 761 8 0 12 -6 9 -12z m7583 -311 c0 -2 -15
-16 -32 -33 l-33 -29 29 33 c28 30 36 37 36 29z m-675 -27 c10 -11 16 -20 13
-20 -3 0 -13 9 -23 20 -10 11 -16 20 -13 20 3 0 13 -9 23 -20z m-10625 -753
c0 -2 -15 -16 -32 -33 l-33 -29 29 33 c28 30 36 37 36 29z m6940 -250 c0 -2
-19 -21 -42 -42 l-43 -40 40 43 c36 39 45 47 45 39z m-2845 -427 c10 -11 16
-20 13 -20 -3 0 -13 9 -23 20 -10 11 -16 20 -13 20 3 0 13 -9 23 -20z m8366
-77 c13 -16 12 -17 -3 -4 -10 7 -18 15 -18 17 0 8 8 3 21 -13z m-12450 -10
c13 -16 12 -17 -3 -4 -10 7 -18 15 -18 17 0 8 8 3 21 -13z m7955 -329 c81 -49
141 -91 137 -97 -3 -5 -1 -7 4 -4 14 9 249 -130 245 -144 -1 -6 2 -8 7 -5 14
9 284 -155 273 -166 -5 -5 -175 91 -412 234 -349 211 -436 268 -405 268 4 0
71 -39 151 -86z m-6365 -261 c-5 -10 -29 -36 -52 -58 l-43 -40 48 58 c49 58
64 71 47 40z m10919 -106 c0 -2 -15 -16 -32 -33 l-33 -29 29 33 c28 30 36 37
36 29z m-3820 -749 c43 -53 43 -53 6 -18 -34 31 -63 70 -53 70 2 0 23 -24 47
-52z m-7935 -888 c10 -11 16 -20 13 -20 -3 0 -13 9 -23 20 -10 11 -16 20 -13
20 3 0 13 -9 23 -20z m8665 -794 c0 -2 -8 -10 -17 -17 -16 -13 -17 -12 -4 4
13 16 21 21 21 13z"/>
<path d="M4135 6190 c27 -12 43 -12 25 0 -8 5 -22 9 -30 9 -10 0 -8 -3 5 -9z"/>
<path d="M4190 6170 c8 -5 20 -10 25 -10 6 0 3 5 -5 10 -8 5 -19 10 -25 10 -5
0 -3 -5 5 -10z"/>
<path d="M4375 6050 c10 -11 20 -20 23 -20 3 0 -3 9 -13 20 -10 11 -20 20 -23
20 -3 0 3 -9 13 -20z"/>
<path d="M4418 5999 c12 -14 38 -55 57 -90 19 -35 35 -60 35 -55 0 19 -64 126
-88 148 l-27 23 23 -26z"/>
<path d="M4515 5824 c3 -12 10 -42 15 -65 l9 -44 -4 48 c-3 27 -10 56 -15 65
-9 14 -10 14 -5 -4z"/>
<path d="M3424 5713 c-8 -65 8 -186 31 -235 8 -18 13 -24 9 -13 -24 81 -35
167 -30 233 7 86 0 96 -10 15z"/>
<path d="M4543 5655 c0 -33 2 -45 4 -27 2 18 2 45 0 60 -2 15 -4 0 -4 -33z"/>
<path d="M4532 5565 c0 -16 2 -22 5 -12 2 9 2 23 0 30 -3 6 -5 -1 -5 -18z"/>
<path d="M11048 5573 c12 -2 30 -2 40 0 9 3 -1 5 -23 4 -22 0 -30 -2 -17 -4z"/>
<path d="M11168 5573 c6 -2 18 -2 25 0 6 3 1 5 -13 5 -14 0 -19 -2 -12 -5z"/>
<path d="M7443 5533 c9 -2 23 -2 30 0 6 3 -1 5 -18 5 -16 0 -22 -2 -12 -5z"/>
<path d="M7588 5533 c7 -3 16 -2 19 1 4 3 -2 6 -13 5 -11 0 -14 -3 -6 -6z"/>
<path d="M4504 5470 c-11 -33 -17 -57 -13 -54 9 5 43 104 37 109 -2 2 -13 -23
-24 -55z"/>
<path d="M3480 5411 c0 -6 4 -13 10 -16 6 -3 7 1 4 9 -7 18 -14 21 -14 7z"/>
<path d="M10685 5309 c-4 -6 -5 -12 -2 -15 2 -3 7 2 10 11 7 17 1 20 -8 4z"/>
<path d="M7095 5279 c-9 -17 -15 -33 -13 -35 3 -2 12 12 21 31 21 43 13 47 -8
4z"/>
<path d="M10661 5249 c-6 -18 -11 -39 -10 -48 0 -9 7 4 14 29 16 51 13 67 -4
19z"/>
<path d="M11571 5214 c0 -11 3 -14 6 -6 3 7 2 16 -1 19 -3 4 -6 -2 -5 -13z"/>
<path d="M7056 5178 c-3 -13 -5 -32 -5 -43 1 -11 5 -2 10 19 10 42 6 62 -5 24z"/>
<path d="M10643 5105 c0 -44 2 -61 4 -37 2 23 2 59 0 80 -2 20 -4 1 -4 -43z"/>
<path d="M11583 5105 c0 -44 2 -61 4 -37 2 23 2 59 0 80 -2 20 -4 1 -4 -43z"/>
<path d="M7981 5154 c0 -11 3 -14 6 -6 3 7 2 16 -1 19 -3 4 -6 -2 -5 -13z"/>
<path d="M7993 5070 c0 -30 2 -43 4 -27 2 15 2 39 0 55 -2 15 -4 2 -4 -28z"/>
<path d="M3640 4990 c-12 -61 -21 -113 -18 -115 2 -2 14 45 27 106 12 61 21
113 18 115 -2 2 -14 -46 -27 -106z"/>
<path d="M7043 5065 c0 -22 2 -30 4 -17 2 12 2 30 0 40 -3 9 -5 -1 -4 -23z"/>
<path d="M4046 5004 c-10 -47 -15 -88 -13 -90 2 -3 12 34 21 82 10 47 15 88
13 90 -2 3 -12 -34 -21 -82z"/>
<path d="M7051 5004 c-1 -22 28 -128 34 -122 1 1 -5 35 -15 73 -11 39 -19 61
-19 49z"/>
<path d="M10651 5009 c-1 -18 20 -82 25 -77 2 2 -3 24 -11 48 -7 25 -14 38
-14 29z"/>
<path d="M7982 4985 c0 -16 2 -22 5 -12 2 9 2 23 0 30 -3 6 -5 -1 -5 -18z"/>
<path d="M11571 4994 c0 -11 3 -14 6 -6 3 7 2 16 -1 19 -3 4 -6 -2 -5 -13z"/>
<path d="M11537 4905 c-9 -19 -15 -35 -12 -35 7 0 37 61 33 66 -3 2 -12 -12
-21 -31z"/>
<path d="M4011 4839 c-7 -33 -10 -63 -8 -65 2 -3 10 23 16 57 7 33 10 63 8 65
-2 3 -10 -23 -16 -57z"/>
<path d="M3612 4840 c0 -14 2 -19 5 -12 2 6 2 18 0 25 -3 6 -5 1 -5 -13z"/>
<path d="M3591 4749 c-7 -33 -10 -63 -8 -65 2 -3 10 23 16 57 7 33 10 63 8 65
-2 3 -10 -23 -16 -57z"/>
<path d="M3992 4740 c0 -14 2 -19 5 -12 2 6 2 18 0 25 -3 6 -5 1 -5 -13z"/>
<path d="M7849 4733 c-13 -16 -12 -17 4 -4 9 7 17 15 17 17 0 8 -8 3 -21 -13z"/>
<path d="M3982 4690 c0 -14 2 -19 5 -12 2 6 2 18 0 25 -3 6 -5 1 -5 -13z"/>
<path d="M7254 4681 c7 -11 46 -35 46 -28 0 3 -12 12 -26 22 -15 9 -23 12 -20
6z"/>
<path d="M10930 4670 c8 -5 20 -10 25 -10 6 0 3 5 -5 10 -8 5 -19 10 -25 10
-5 0 -3 -5 5 -10z"/>
<path d="M3561 4609 c-7 -33 -10 -63 -8 -65 2 -3 10 23 16 57 7 33 10 63 8 65
-2 3 -10 -23 -16 -57z"/>
<path d="M3966 4624 c-4 -20 -5 -38 -3 -40 3 -3 8 11 11 32 4 20 5 38 3 40 -3
3 -8 -11 -11 -32z"/>
<path d="M11008 4643 c7 -3 16 -2 19 1 4 3 -2 6 -13 5 -11 0 -14 -3 -6 -6z"/>
<path d="M11331 4634 c0 -11 3 -14 6 -6 3 7 2 16 -1 19 -3 4 -6 -2 -5 -13z"/>
<path d="M7345 4630 c19 -10 20 -20 19 -233 l-1 -222 6 225 c4 124 7 226 7
226 -1 1 -12 4 -26 8 -22 5 -23 5 -5 -4z"/>
<path d="M11052 4610 c0 -19 2 -27 5 -17 2 9 2 25 0 35 -3 9 -5 1 -5 -18z"/>
<path d="M11341 4574 c0 -11 3 -14 6 -6 3 7 2 16 -1 19 -3 4 -6 -2 -5 -13z"/>
<path d="M3952 4550 c0 -14 2 -19 5 -12 2 6 2 18 0 25 -3 6 -5 1 -5 -13z"/>
<path d="M11062 4550 c0 -14 2 -19 5 -12 2 6 2 18 0 25 -3 6 -5 1 -5 -13z"/>
<path d="M3535 4490 c-4 -23 -5 -43 -2 -46 2 -3 7 14 11 37 4 23 5 44 2 46 -2
2 -7 -14 -11 -37z"/>
<path d="M11352 4510 c0 -14 2 -19 5 -12 2 6 2 18 0 25 -3 6 -5 1 -5 -13z"/>
<path d="M3942 4500 c0 -14 2 -19 5 -12 2 6 2 18 0 25 -3 6 -5 1 -5 -13z"/>
<path d="M11072 4490 c0 -19 2 -27 5 -17 2 9 2 25 0 35 -3 9 -5 1 -5 -18z"/>
<path d="M3931 4454 c0 -11 3 -14 6 -6 3 7 2 16 -1 19 -3 4 -6 -2 -5 -13z"/>
<path d="M11361 4454 c0 -11 3 -14 6 -6 3 7 2 16 -1 19 -3 4 -6 -2 -5 -13z"/>
<path d="M11082 4425 c0 -16 2 -22 5 -12 2 9 2 23 0 30 -3 6 -5 -1 -5 -18z"/>
<path d="M3522 4410 c0 -14 2 -19 5 -12 2 6 2 18 0 25 -3 6 -5 1 -5 -13z"/>
<path d="M3922 4410 c0 -14 2 -19 5 -12 2 6 2 18 0 25 -3 6 -5 1 -5 -13z"/>
<path d="M7644 4255 c0 -88 2 -123 3 -77 2 46 2 118 0 160 -1 42 -3 5 -3 -83z"/>
<path d="M11371 4384 c0 -11 3 -14 6 -6 3 7 2 16 -1 19 -3 4 -6 -2 -5 -13z"/>
<path d="M11092 4365 c0 -16 2 -22 5 -12 2 9 2 23 0 30 -3 6 -5 -1 -5 -18z"/>
<path d="M3471 4369 c-24 -5 -46 -11 -49 -14 -6 -6 90 6 97 11 10 9 -7 10 -48
3z"/>
<path d="M3912 4360 c0 -14 2 -19 5 -12 2 6 2 18 0 25 -3 6 -5 1 -5 -13z"/>
<path d="M11382 4330 c0 -14 2 -19 5 -12 2 6 2 18 0 25 -3 6 -5 1 -5 -13z"/>
<path d="M3335 4320 c-3 -6 1 -7 9 -4 18 7 21 14 7 14 -6 0 -13 -4 -16 -10z"/>
<path d="M3901 4314 c0 -11 3 -14 6 -6 3 7 2 16 -1 19 -3 4 -6 -2 -5 -13z"/>
<path d="M11102 4305 c0 -16 2 -22 5 -12 2 9 2 23 0 30 -3 6 -5 -1 -5 -18z"/>
<path d="M11392 4260 c0 -14 2 -19 5 -12 2 6 2 18 0 25 -3 6 -5 1 -5 -13z"/>
<path d="M11112 4245 c0 -16 4 -43 8 -60 11 -42 11 -1 1 50 -7 34 -9 35 -9 10z"/>
<path d="M11402 4205 c0 -16 2 -22 5 -12 2 9 2 23 0 30 -3 6 -5 -1 -5 -18z"/>
<path d="M11412 4145 c0 -16 2 -22 5 -12 2 9 2 23 0 30 -3 6 -5 -1 -5 -18z"/>
<path d="M11132 4120 c0 -19 2 -27 5 -17 2 9 2 25 0 35 -3 9 -5 1 -5 -18z"/>
<path d="M373 4133 c9 -2 23 -2 30 0 6 3 -1 5 -18 5 -16 0 -22 -2 -12 -5z"/>
<path d="M538 4133 c7 -3 16 -2 19 1 4 3 -2 6 -13 5 -11 0 -14 -3 -6 -6z"/>
<path d="M310 4120 c-18 -12 -2 -12 25 0 13 6 15 9 5 9 -8 0 -22 -4 -30 -9z"/>
<path d="M254 4094 c-18 -14 -18 -14 6 -3 31 14 36 19 24 19 -6 0 -19 -7 -30
-16z"/>
<path d="M7350 4011 c0 -70 -4 -101 -12 -104 -8 -3 -6 -6 5 -6 15 -1 17 10 17
104 0 58 -2 105 -5 105 -3 0 -5 -45 -5 -99z"/>
<path d="M11422 4085 c0 -16 2 -22 5 -12 2 9 2 23 0 30 -3 6 -5 -1 -5 -18z"/>
<path d="M3070 4080 c-6 -11 -8 -20 -6 -20 3 0 10 9 16 20 6 11 8 20 6 20 -3
0 -10 -9 -16 -20z"/>
<path d="M4110 4070 c6 -11 13 -20 16 -20 2 0 0 9 -6 20 -6 11 -13 20 -16 20
-2 0 0 -9 6 -20z"/>
<path d="M11142 4055 c0 -16 4 -43 8 -60 11 -42 11 -1 1 50 -7 34 -9 35 -9 10z"/>
<path d="M11432 4020 c0 -14 2 -19 5 -12 2 6 2 18 0 25 -3 6 -5 1 -5 -13z"/>
<path d="M4140 4015 c0 -5 5 -17 10 -25 5 -8 10 -10 10 -5 0 6 -5 17 -10 25
-5 8 -10 11 -10 5z"/>
<path d="M7632 3958 c-2 -59 0 -68 16 -68 11 0 13 3 5 8 -6 4 -14 34 -16 67
l-3 60 -2 -67z"/>
<path d="M11441 3968 c-1 -24 3 -28 27 -27 22 1 23 2 5 6 -13 2 -24 13 -26 26
-4 18 -5 17 -6 -5z"/>
<path d="M11160 3931 c0 -18 -8 -34 -22 -45 -23 -16 -23 -16 5 -4 22 9 27 18
27 45 0 18 -2 33 -5 33 -3 0 -5 -13 -5 -29z"/>
<path d="M4171 3924 c0 -11 3 -14 6 -6 3 7 2 16 -1 19 -3 4 -6 -2 -5 -13z"/>
<path d="M11508 3933 c6 -2 18 -2 25 0 6 3 1 5 -13 5 -14 0 -19 -2 -12 -5z"/>
<path d="M2995 3890 c-4 -23 -5 -43 -2 -46 2 -3 7 14 11 37 4 23 5 44 2 46 -2
2 -7 -14 -11 -37z"/>
<path d="M11560 3922 c8 -5 26 -13 40 -16 17 -5 20 -4 10 2 -8 5 -26 13 -40
16 -17 5 -20 4 -10 -2z"/>
<path d="M35 3879 c-9 -17 -15 -33 -13 -35 3 -2 12 12 21 31 21 43 13 47 -8 4z"/>
<path d="M4185 3770 c0 -74 3 -121 6 -104 4 16 7 63 7 104 0 41 -3 88 -7 104
-3 17 -6 -30 -6 -104z"/>
<path d="M11640 3890 c8 -5 20 -10 25 -10 6 0 3 5 -5 10 -8 5 -19 10 -25 10
-5 0 -3 -5 5 -10z"/>
<path d="M7260 3880 c-8 -5 -10 -10 -5 -10 6 0 17 5 25 10 8 5 11 10 5 10 -5
0 -17 -5 -25 -10z"/>
<path d="M7680 3880 c8 -5 20 -10 25 -10 6 0 3 5 -5 10 -8 5 -19 10 -25 10 -5
0 -3 -5 5 -10z"/>
<path d="M890 3854 c0 -6 7 -19 16 -30 14 -18 14 -18 3 6 -14 31 -19 36 -19
24z"/>
<path d="M7174 3834 c-18 -14 -18 -15 4 -4 12 6 22 13 22 15 0 8 -5 6 -26 -11z"/>
<path d="M6 3815 c-3 -9 -6 -22 -5 -28 0 -7 5 -1 10 12 5 13 8 26 5 28 -2 2
-6 -3 -10 -12z"/>
<path d="M2981 3775 l-1 -51 -120 -39 c-66 -21 -118 -41 -115 -43 2 -2 59 14
127 37 l124 41 -4 38 c-6 63 -10 69 -11 17z"/>
<path d="M10950 3738 c-47 -56 -98 -138 -85 -138 2 0 13 17 24 38 11 21 43 66
71 100 29 34 49 62 47 62 -3 0 -28 -28 -57 -62z"/>
<path d="M11800 3786 c0 -2 8 -10 18 -17 15 -13 16 -12 3 4 -13 16 -21 21 -21
13z"/>
<path d="M961 3674 c0 -11 3 -14 6 -6 3 7 2 16 -1 19 -3 4 -6 -2 -5 -13z"/>
<path d="M11910 3640 c6 -11 13 -20 16 -20 2 0 0 9 -6 20 -6 11 -13 20 -16 20
-2 0 0 -9 6 -20z"/>
<path d="M973 3590 c0 -30 2 -43 4 -27 2 15 2 39 0 55 -2 15 -4 2 -4 -28z"/>
<path d="M1208 3603 c12 -2 32 -2 45 0 12 2 2 4 -23 4 -25 0 -35 -2 -22 -4z"/>
<path d="M1415 3595 c33 -7 62 -11 63 -10 7 6 -72 25 -98 24 -14 0 2 -7 35
-14z"/>
<path d="M6940 3589 c-7 -11 -10 -23 -7 -25 2 -2 9 7 15 21 14 30 7 33 -8 4z"/>
<path d="M1158 3593 c7 -3 16 -2 19 1 4 3 -2 6 -13 5 -11 0 -14 -3 -6 -6z"/>
<path d="M4161 3593 c-1 -6 -4 -20 -7 -30 -5 -17 -5 -17 6 0 6 10 9 23 6 30
-3 9 -5 9 -5 0z"/>
<path d="M10836 3544 c-9 -26 -16 -55 -15 -63 0 -9 9 11 19 44 23 70 19 87 -4
19z"/>
<path d="M11942 3585 c0 -5 6 -26 13 -45 7 -19 14 -28 14 -20 0 8 -6 29 -14
45 -7 17 -13 26 -13 20z"/>
<path d="M1080 3570 c-8 -5 -10 -10 -5 -10 6 0 17 5 25 10 8 5 11 10 5 10 -5
0 -17 -5 -25 -10z"/>
<path d="M1 3550 c0 -8 4 -22 9 -30 12 -18 12 -2 0 25 -6 13 -9 15 -9 5z"/>
<path d="M8030 3555 c0 -5 5 -17 10 -25 5 -8 10 -10 10 -5 0 6 -5 17 -10 25
-5 8 -10 11 -10 5z"/>
<path d="M1008 3534 c-38 -20 -36 -28 2 -9 17 9 30 18 30 20 0 7 -1 6 -32 -11z"/>
<path d="M6913 3535 c-3 -9 -3 -18 -1 -21 3 -3 8 4 11 16 6 23 -1 27 -10 5z"/>
<path d="M961 3514 c0 -11 3 -14 6 -6 3 7 2 16 -1 19 -3 4 -6 -2 -5 -13z"/>
<path d="M20 3495 c0 -5 5 -17 10 -25 5 -8 10 -10 10 -5 0 6 -5 17 -10 25 -5
8 -10 11 -10 5z"/>
<path d="M11971 3484 c0 -11 3 -14 6 -6 3 7 2 16 -1 19 -3 4 -6 -2 -5 -13z"/>
<path d="M8061 3464 c0 -11 3 -14 6 -6 3 7 2 16 -1 19 -3 4 -6 -2 -5 -13z"/>
<path d="M2055 3420 c-77 -27 -135 -49 -130 -49 6 -1 76 21 155 48 80 27 138
49 130 49 -8 0 -78 -21 -155 -48z"/>
<path d="M6885 3430 c-4 -23 -5 -43 -2 -46 2 -3 7 14 11 37 4 23 5 44 2 46 -2
2 -7 -14 -11 -37z"/>
<path d="M3113 3405 c61 -67 75 -73 18 -9 -23 26 -41 51 -41 55 0 5 -6 9 -14
9 -8 0 9 -25 37 -55z"/>
<path d="M10805 3398 c-3 -35 -2 -83 2 -108 7 -36 9 -24 9 63 0 59 -1 107 -2
107 -1 0 -5 -28 -9 -62z"/>
<path d="M11982 3430 c0 -19 2 -27 5 -17 2 9 2 25 0 35 -3 9 -5 1 -5 -18z"/>
<path d="M57 3415 c9 -19 18 -33 21 -31 4 5 -26 66 -33 66 -3 0 3 -16 12 -35z"/>
<path d="M12258 3413 c23 -2 61 -2 85 0 23 2 4 4 -43 4 -47 0 -66 -2 -42 -4z"/>
<path d="M12135 3391 c-53 -25 -43 -26 20 -1 28 10 43 19 35 19 -8 0 -33 -8
-55 -18z"/>
<path d="M6873 3315 c0 -27 2 -38 4 -22 2 15 2 37 0 50 -2 12 -4 0 -4 -28z"/>
<path d="M2525 3280 c-110 -38 -195 -69 -190 -69 6 -1 103 30 215 68 113 38
198 69 190 69 -8 0 -105 -30 -215 -68z"/>
<path d="M3215 3305 c22 -20 49 -41 60 -47 25 -13 13 -2 -50 46 l-50 38 40
-37z"/>
<path d="M11980 3304 c0 -8 5 -12 10 -9 6 4 8 11 5 16 -9 14 -15 11 -15 -7z"/>
<path d="M3904 3264 c-18 -14 -18 -15 4 -4 12 6 22 13 22 15 0 8 -5 6 -26 -11z"/>
<path d="M6886 3208 c3 -32 1 -58 -3 -58 -5 0 -18 -7 -29 -15 -17 -14 -15 -14
14 0 34 17 36 26 22 90 -8 35 -8 33 -4 -17z"/>
<path d="M3314 3236 c11 -9 24 -16 30 -16 12 0 7 5 -24 19 -24 11 -24 11 -6
-3z"/>
<path d="M3840 3230 c-19 -11 -31 -19 -27 -20 11 0 67 29 67 35 0 7 -1 7 -40
-15z"/>
<path d="M10818 3217 c-3 -19 -2 -25 4 -19 6 6 8 18 6 28 -3 14 -5 12 -10 -9z"/>
<path d="M3420 3192 c45 -22 285 -24 343 -4 54 20 42 23 -23 6 -72 -19 -233
-18 -296 1 -62 19 -68 18 -24 -3z"/>
<path d="M260 3185 c0 -7 61 -37 66 -33 2 3 -12 12 -31 21 -19 9 -35 15 -35
12z"/>
<path d="M10768 3174 c-38 -20 -36 -28 2 -9 17 9 30 18 30 20 0 7 -1 6 -32
-11z"/>
<path d="M690 3165 c-14 -8 -20 -14 -14 -15 5 0 19 7 30 15 24 18 16 19 -16 0z"/>
<path d="M716 3123 c-7 -48 -6 -191 2 -221 4 -13 7 40 7 117 0 78 -1 141 -1
141 -1 0 -4 -17 -8 -37z"/>
<path d="M625 3140 c-13 -6 -15 -9 -5 -9 8 0 22 4 30 9 18 12 2 12 -25 0z"/>
<path d="M385 3130 c19 -8 83 -14 74 -6 -2 2 -24 6 -49 9 -30 4 -38 3 -25 -3z"/>
<path d="M10668 3119 c-21 -11 -38 -22 -38 -24 0 -3 18 4 40 15 22 11 40 23
40 25 0 7 0 7 -42 -16z"/>
<path d="M548 3123 c12 -2 30 -2 40 0 9 3 -1 5 -23 4 -22 0 -30 -2 -17 -4z"/>
<path d="M12736 3117 c3 -10 9 -15 12 -12 3 3 0 11 -7 18 -10 9 -11 8 -5 -6z"/>
<path d="M6768 3089 c-21 -11 -38 -22 -38 -24 0 -3 18 4 40 15 22 11 40 23 40
25 0 7 0 7 -42 -16z"/>
<path d="M1913 3080 c-21 -8 -23 -15 -21 -72 l2 -63 3 61 c4 59 5 62 36 72 18
5 25 10 17 10 -8 1 -25 -3 -37 -8z"/>
<path d="M12761 3070 c14 -31 19 -36 19 -24 0 6 -7 19 -16 30 -14 18 -14 18
-3 -6z"/>
<path d="M10548 3054 c-38 -20 -36 -28 2 -9 17 9 30 18 30 20 0 7 -1 6 -32
-11z"/>
<path d="M6658 3029 c-21 -11 -38 -22 -38 -24 0 -3 18 4 40 15 22 11 40 23 40
25 0 7 0 7 -42 -16z"/>
<path d="M10448 2999 c-21 -11 -38 -22 -38 -24 0 -3 18 4 40 15 22 11 40 23
40 25 0 7 0 7 -42 -16z"/>
<path d="M12791 2994 c0 -11 3 -14 6 -6 3 7 2 16 -1 19 -3 4 -6 -2 -5 -13z"/>
<path d="M6548 2969 c-21 -11 -38 -22 -38 -24 0 -3 18 4 40 15 22 11 40 23 40
25 0 7 0 7 -42 -16z"/>
<path d="M11817 2953 c-3 -5 -1 -17 4 -28 7 -17 8 -17 8 8 1 27 -4 34 -12 20z"/>
<path d="M10328 2934 c-38 -20 -36 -28 2 -9 17 9 30 18 30 20 0 7 -1 6 -32
-11z"/>
<path d="M10898 2929 c-21 -11 -38 -22 -38 -24 0 -3 18 4 40 15 22 11 40 23
40 25 0 7 0 7 -42 -16z"/>
<path d="M1882 2915 c0 -16 2 -22 5 -12 2 9 2 23 0 30 -3 6 -5 -1 -5 -18z"/>
<path d="M6438 2909 c-21 -11 -38 -22 -38 -24 0 -3 18 4 40 15 22 11 40 23 40
25 0 7 0 7 -42 -16z"/>
<path d="M10238 2884 c-38 -20 -36 -28 2 -9 17 9 30 18 30 20 0 7 -1 6 -32
-11z"/>
<path d="M11831 2874 c0 -16 4 -38 9 -49 6 -13 7 -5 3 25 -7 53 -13 66 -12 24z"/>
<path d="M10788 2869 c-21 -11 -38 -22 -38 -24 0 -3 18 4 40 15 22 11 40 23
40 25 0 7 0 7 -42 -16z"/>
<path d="M6328 2849 c-21 -11 -38 -22 -38 -24 0 -3 18 4 40 15 22 11 40 23 40
25 0 7 0 7 -42 -16z"/>
<path d="M6888 2839 c-21 -11 -38 -22 -38 -24 0 -3 18 4 40 15 22 11 40 23 40
25 0 7 0 7 -42 -16z"/>
<path d="M7849 2843 c-13 -16 -12 -17 3 -5 9 8 23 10 29 6 8 -4 9 -3 5 4 -10
17 -21 15 -37 -5z"/>
<path d="M1861 2843 c-1 -6 -4 -20 -7 -30 -5 -17 -5 -17 6 0 6 10 9 23 6 30
-3 9 -5 9 -5 0z"/>
<path d="M11640 2825 c-25 -13 -41 -24 -37 -25 11 0 87 39 87 45 0 7 0 7 -50
-20z"/>
<path d="M10128 2824 c-38 -20 -36 -28 2 -9 17 9 30 18 30 20 0 7 -1 6 -32
-11z"/>
<path d="M10678 2809 c-21 -11 -38 -22 -38 -24 0 -3 18 4 40 15 22 11 40 23
40 25 0 7 0 7 -42 -16z"/>
<path d="M7930 2816 c0 -3 9 -10 20 -16 11 -6 20 -8 20 -6 0 3 -9 10 -20 16
-11 6 -20 8 -20 6z"/>
<path d="M9303 2813 c9 -2 23 -2 30 0 6 3 -1 5 -18 5 -16 0 -22 -2 -12 -5z"/>
<path d="M750 2806 c0 -11 30 -66 36 -66 2 0 -3 15 -12 33 -19 36 -24 44 -24
33z"/>
<path d="M6208 2784 c-27 -13 -48 -27 -48 -29 0 -3 23 6 50 20 28 14 50 28 50
30 0 7 1 7 -52 -21z"/>
<path d="M7740 2780 c-30 -16 -51 -29 -47 -30 10 0 107 49 107 55 0 7 1 7 -60
-25z"/>
<path d="M9145 2795 c-39 -14 -39 -14 -5 -8 19 4 53 10 75 14 l40 6 -35 1
c-19 0 -53 -6 -75 -13z"/>
<path d="M9371 2806 c2 -2 24 -6 49 -9 30 -4 38 -3 25 3 -19 8 -83 14 -74 6z"/>
<path d="M11200 2800 c8 -5 20 -10 25 -10 6 0 3 5 -5 10 -8 5 -19 10 -25 10
-5 0 -3 -5 5 -10z"/>
<path d="M6778 2779 c-21 -11 -38 -22 -38 -24 0 -3 18 4 40 15 22 11 40 23 40
25 0 7 0 7 -42 -16z"/>
<path d="M7180 2795 c0 -7 61 -37 66 -33 2 3 -12 12 -31 21 -19 9 -35 15 -35
12z"/>
<path d="M7980 2786 c0 -3 9 -10 20 -16 11 -6 20 -8 20 -6 0 3 -9 10 -20 16
-11 6 -20 8 -20 6z"/>
<path d="M9485 2780 c27 -12 43 -12 25 0 -8 5 -22 9 -30 9 -10 0 -8 -3 5 -9z"/>
<path d="M11248 2783 c7 -3 16 -2 19 1 4 3 -2 6 -13 5 -11 0 -14 -3 -6 -6z"/>
<path d="M11495 2780 l-40 -7 35 -1 c19 0 44 3 55 8 24 10 7 10 -50 0z"/>
<path d="M9038 2754 c-27 -13 -48 -27 -48 -29 0 -5 99 42 109 51 13 11 -20 0
-61 -22z"/>
<path d="M11293 2773 c9 -2 23 -2 30 0 6 3 -1 5 -18 5 -16 0 -22 -2 -12 -5z"/>
<path d="M1815 2740 c-9 -16 -13 -30 -11 -30 3 0 12 14 21 30 9 17 13 30 11
30 -3 0 -12 -13 -21 -30z"/>
<path d="M5378 2763 c12 -2 32 -2 45 0 12 2 2 4 -23 4 -25 0 -35 -2 -22 -4z"/>
<path d="M10548 2739 c-32 -16 -58 -32 -58 -34 0 -3 27 8 60 25 33 17 60 32
60 35 0 7 2 8 -62 -26z"/>
<path d="M11368 2763 c18 -2 45 -2 60 0 15 2 0 4 -33 4 -33 0 -45 -2 -27 -4z"/>
<path d="M5288 2753 c12 -2 30 -2 40 0 9 3 -1 5 -23 4 -22 0 -30 -2 -17 -4z"/>
<path d="M5463 2753 c9 -2 23 -2 30 0 6 3 -1 5 -18 5 -16 0 -22 -2 -12 -5z"/>
<path d="M8030 2756 c0 -3 14 -12 30 -21 17 -9 30 -13 30 -11 0 3 -13 12 -30
21 -16 9 -30 13 -30 11z"/>
<path d="M9978 2744 c-38 -20 -36 -28 2 -9 17 9 30 18 30 20 0 7 -1 6 -32 -11z"/>
<path d="M5238 2743 c7 -3 16 -2 19 1 4 3 -2 6 -13 5 -11 0 -14 -3 -6 -6z"/>
<path d="M5518 2743 c7 -3 16 -2 19 1 4 3 -2 6 -13 5 -11 0 -14 -3 -6 -6z"/>
<path d="M6705 2740 c-3 -6 1 -7 9 -4 18 7 21 14 7 14 -6 0 -13 -4 -16 -10z"/>
<path d="M7335 2730 c19 -8 73 -14 64 -6 -2 2 -22 6 -44 9 -28 5 -34 4 -20 -3z"/>
<path d="M7628 2733 c7 -3 16 -2 19 1 4 3 -2 6 -13 5 -11 0 -14 -3 -6 -6z"/>
<path d="M807 2702 c10 -18 33 -47 52 -65 l35 -32 -34 40 c-19 22 -43 51 -53
65 -17 24 -17 24 0 -8z"/>
<path d="M5128 2704 c-27 -13 -48 -27 -48 -29 0 -5 99 42 109 51 13 11 -20 0
-61 -22z"/>
<path d="M5590 2720 c8 -5 20 -10 25 -10 6 0 3 5 -5 10 -8 5 -19 10 -25 10 -5
0 -3 -5 5 -10z"/>
<path d="M6084 2714 c-18 -14 -18 -15 4 -4 12 6 22 13 22 15 0 8 -5 6 -26 -11z"/>
<path d="M7563 2723 c9 -2 25 -2 35 0 9 3 1 5 -18 5 -19 0 -27 -2 -17 -5z"/>
<path d="M6628 2699 c-21 -11 -38 -22 -38 -24 0 -3 18 4 40 15 22 11 40 23 40
25 0 7 0 7 -42 -16z"/>
<path d="M7437 2713 c18 -2 50 -2 70 0 21 2 7 4 -32 4 -38 0 -55 -2 -38 -4z"/>
<path d="M5631 2706 c2 -2 15 -9 29 -15 24 -11 24 -11 6 3 -16 13 -49 24 -35
12z"/>
<path d="M8130 2696 c0 -3 9 -10 20 -16 11 -6 20 -8 20 -6 0 3 -9 10 -20 16
-11 6 -20 8 -20 6z"/>
<path d="M8926 2685 c-11 -8 -15 -15 -9 -15 6 0 16 7 23 15 16 19 11 19 -14 0z"/>
<path d="M9868 2684 c-38 -20 -36 -28 2 -9 17 9 30 18 30 20 0 7 -1 6 -32 -11z"/>
<path d="M10428 2674 c-38 -20 -36 -28 2 -9 17 9 30 18 30 20 0 7 -1 6 -32
-11z"/>
<path d="M5988 2664 c-38 -20 -36 -28 2 -9 17 9 30 18 30 20 0 7 -1 6 -32 -11z"/>
<path d="M8180 2666 c0 -3 9 -10 20 -16 11 -6 20 -8 20 -6 0 3 -9 10 -20 16
-11 6 -20 8 -20 6z"/>
<path d="M6518 2639 c-21 -11 -38 -22 -38 -24 0 -3 18 4 40 15 22 11 40 23 40
25 0 7 0 7 -42 -16z"/>
<path d="M9778 2634 c-38 -20 -36 -28 2 -9 17 9 30 18 30 20 0 7 -1 6 -32 -11z"/>
<path d="M8230 2636 c0 -3 9 -10 20 -16 11 -6 20 -8 20 -6 0 3 -9 10 -20 16
-11 6 -20 8 -20 6z"/>
<path d="M10318 2614 c-38 -20 -36 -28 2 -9 17 9 30 18 30 20 0 7 -1 6 -32
-11z"/>
<path d="M5884 2604 c-18 -14 -18 -15 4 -4 12 6 22 13 22 15 0 8 -5 6 -26 -11z"/>
<path d="M8280 2606 c0 -3 9 -10 20 -16 11 -6 20 -8 20 -6 0 3 -9 10 -20 16
-11 6 -20 8 -20 6z"/>
<path d="M6418 2584 c-38 -20 -36 -28 2 -9 17 9 30 18 30 20 0 7 -1 6 -32 -11z"/>
<path d="M8330 2576 c0 -3 9 -10 20 -16 11 -6 20 -8 20 -6 0 3 -9 10 -20 16
-11 6 -20 8 -20 6z"/>
<path d="M10208 2554 c-38 -20 -36 -28 2 -9 17 9 30 18 30 20 0 7 -1 6 -32
-11z"/>
<path d="M6308 2524 c-38 -20 -36 -28 2 -9 17 9 30 18 30 20 0 7 -1 6 -32 -11z"/>
<path d="M1588 2514 c-38 -20 -36 -28 2 -9 17 9 30 18 30 20 0 7 -1 6 -32 -11z"/>
<path d="M8410 2526 c0 -3 9 -10 20 -16 11 -6 20 -8 20 -6 0 3 -9 10 -20 16
-11 6 -20 8 -20 6z"/>
<path d="M1000 2515 c0 -7 61 -37 66 -33 2 3 -12 12 -31 21 -19 9 -35 15 -35
12z"/>
<path d="M10108 2499 c-21 -11 -38 -22 -38 -24 0 -3 18 4 40 15 22 11 40 23
40 25 0 7 0 7 -42 -16z"/>
<path d="M8460 2496 c0 -3 9 -10 20 -16 11 -6 20 -8 20 -6 0 3 -9 10 -20 16
-11 6 -20 8 -20 6z"/>
<path d="M1510 2475 c-14 -8 -20 -14 -15 -14 6 0 21 6 35 14 14 8 21 14 15 14
-5 0 -21 -6 -35 -14z"/>
<path d="M1105 2465 c17 -8 37 -14 45 -14 8 0 -1 7 -20 14 -46 18 -64 17 -25
0z"/>
<path d="M4848 2469 c7 -9 10 -25 6 -35 -5 -18 -5 -18 6 0 10 15 9 21 -6 35
-16 14 -17 14 -6 0z"/>
<path d="M6198 2464 c-38 -20 -36 -28 2 -9 17 9 30 18 30 20 0 7 -1 6 -32 -11z"/>
<path d="M8510 2466 c0 -3 9 -10 20 -16 11 -6 20 -8 20 -6 0 3 -9 10 -20 16
-11 6 -20 8 -20 6z"/>
<path d="M12540 2450 c-19 -11 -31 -19 -27 -20 11 0 67 29 67 35 0 7 -1 7 -40
-15z"/>
<path d="M9998 2439 c-21 -11 -38 -22 -38 -24 0 -3 18 4 40 15 22 11 40 23 40
25 0 7 0 7 -42 -16z"/>
<path d="M8560 2436 c0 -3 9 -10 20 -16 11 -6 20 -8 20 -6 0 3 -9 10 -20 16
-11 6 -20 8 -20 6z"/>
<path d="M6108 2414 c-38 -20 -36 -28 2 -9 17 9 30 18 30 20 0 7 -1 6 -32 -11z"/>
<path d="M12190 2420 c8 -5 22 -9 30 -9 10 0 8 3 -5 9 -27 12 -43 12 -25 0z"/>
<path d="M12465 2420 c-13 -6 -15 -9 -5 -9 8 0 22 4 30 9 18 12 2 12 -25 0z"/>
<path d="M8610 2406 c0 -3 9 -10 20 -16 11 -6 20 -8 20 -6 0 3 -9 10 -20 16
-11 6 -20 8 -20 6z"/>
<path d="M12248 2403 c6 -2 18 -2 25 0 6 3 1 5 -13 5 -14 0 -19 -2 -12 -5z"/>
<path d="M12393 2403 c9 -2 25 -2 35 0 9 3 1 5 -18 5 -19 0 -27 -2 -17 -5z"/>
<path d="M1137 2057 c-5 -192 -7 -351 -4 -353 6 -6 20 607 15 661 -2 22 -7
-117 -11 -308z"/>
<path d="M9903 2388 c-13 -6 -23 -15 -23 -20 0 -5 11 -1 25 8 37 24 35 30 -2
12z"/>
<path d="M12313 2393 c9 -2 25 -2 35 0 9 3 1 5 -18 5 -19 0 -27 -2 -17 -5z"/>
<path d="M4826 2375 c-3 -9 -6 -22 -5 -28 0 -7 5 -1 10 12 5 13 8 26 5 28 -2
2 -6 -3 -10 -12z"/>
<path d="M6008 2359 c-21 -11 -38 -22 -38 -24 0 -3 18 4 40 15 22 11 40 23 40
25 0 7 0 7 -42 -16z"/>
<path d="M8698 2348 c6 -8 8 -36 4 -73 -4 -33 -4 -85 -1 -115 5 -48 6 -44 6
31 1 47 4 101 8 121 5 28 3 37 -11 42 -13 5 -14 3 -6 -6z"/>
<path d="M9892 2330 c0 -14 2 -19 5 -12 2 6 2 18 0 25 -3 6 -5 1 -5 -13z"/>
<path d="M4806 2315 c-3 -9 -5 -29 -5 -43 1 -20 3 -17 9 13 8 43 7 57 -4 30z"/>
<path d="M1424 2160 c0 -91 2 -128 3 -82 2 45 2 119 0 165 -1 45 -3 8 -3 -83z"/>
<path d="M5961 2294 c0 -11 3 -14 6 -6 3 7 2 16 -1 19 -3 4 -6 -2 -5 -13z"/>
<path d="M9904 2215 c0 -49 1 -71 3 -48 2 23 2 64 0 90 -2 26 -3 8 -3 -42z"/>
<path d="M5974 2175 c0 -55 1 -76 3 -47 2 29 2 74 0 100 -2 26 -3 2 -3 -53z"/>
<path d="M4793 2170 c0 -41 2 -58 4 -37 2 20 2 54 0 75 -2 20 -4 3 -4 -38z"/>
<path d="M9891 2105 c-1 -11 -4 -31 -6 -45 l-6 -25 11 25 c6 13 9 33 7 45 -4
19 -4 19 -6 0z"/>
<path d="M8712 2085 c0 -11 3 -29 8 -40 11 -25 11 1 0 35 -6 20 -8 21 -8 5z"/>
<path d="M4801 2069 c0 -13 4 -33 9 -44 7 -14 8 -8 3 20 -7 46 -13 59 -12 24z"/>
<path d="M5962 2050 c0 -14 2 -19 5 -12 2 6 2 18 0 25 -3 6 -5 1 -5 -13z"/>
<path d="M8731 2015 c0 -5 6 -21 14 -35 8 -14 14 -20 14 -15 0 6 -6 21 -14 35
-8 14 -14 21 -14 15z"/>
<path d="M4821 1990 c0 -14 28 -72 29 -59 0 4 -7 22 -15 40 -8 19 -14 27 -14
19z"/>
<path d="M9842 1955 c-12 -25 -20 -45 -17 -45 7 0 47 81 43 86 -3 2 -14 -17
-26 -41z"/>
<path d="M5912 1915 c-12 -25 -20 -45 -17 -45 7 0 47 81 43 86 -3 2 -14 -17
-26 -41z"/>
<path d="M8780 1910 c6 -11 13 -20 16 -20 2 0 0 9 -6 20 -6 11 -13 20 -16 20
-2 0 0 -9 6 -20z"/>
<path d="M1413 1770 c0 -47 2 -66 4 -42 2 23 2 61 0 85 -2 23 -4 4 -4 -43z"/>
<path d="M9604 1694 c-18 -14 -18 -15 4 -4 12 6 22 13 22 15 0 8 -5 6 -26 -11z"/>
<path d="M9024 1676 c11 -9 24 -16 30 -16 12 0 7 5 -24 19 -24 11 -24 11 -6
-3z"/>
<path d="M999 1639 l-24 -20 28 17 c15 9 27 18 27 20 0 8 -8 4 -31 -17z"/>
<path d="M5092 1644 c-14 -15 -7 -17 22 -5 15 6 16 9 5 13 -8 3 -20 -1 -27 -8z"/>
<path d="M9080 1652 c8 -5 26 -13 40 -16 17 -5 20 -4 10 2 -8 5 -26 13 -40 16
-17 5 -20 4 -10 -2z"/>
<path d="M9510 1650 c-8 -5 -10 -10 -5 -10 6 0 17 5 25 10 8 5 11 10 5 10 -5
0 -17 -5 -25 -10z"/>
<path d="M5630 1640 c-9 -6 -10 -10 -3 -10 6 0 15 5 18 10 8 12 4 12 -15 0z"/>
<path d="M9146 1608 c-3 -13 -5 -108 -4 -213 l2 -190 6 210 c3 116 4 211 4
213 -1 1 -4 -8 -8 -20z"/>
<path d="M9431 1608 c0 -16 2 -18 6 -8 3 8 11 18 17 22 7 5 4 8 -6 8 -12 0
-18 -7 -17 -22z"/>
<path d="M5555 1610 c-13 -6 -15 -9 -5 -9 8 0 22 4 30 9 18 12 2 12 -25 0z"/>
<path d="M5495 1590 c3 -5 12 -7 20 -3 21 7 19 13 -6 13 -11 0 -18 -4 -14 -10z"/>
<path d="M9424 1360 c0 -91 2 -128 3 -82 2 45 2 119 0 165 -1 45 -3 8 -3 -83z"/>
<path d="M1686 1447 c3 -10 9 -15 12 -12 3 3 0 11 -7 18 -10 9 -11 8 -5 -6z"/>
<path d="M806 1384 c-4 -14 -5 -28 -3 -31 3 -2 8 8 11 23 4 14 5 28 3 31 -3 2
-8 -8 -11 -23z"/>
<path d="M792 1315 c0 -16 2 -22 5 -12 2 9 2 23 0 30 -3 6 -5 -1 -5 -18z"/>
<path d="M1733 1245 c0 -38 2 -53 4 -32 2 20 2 52 0 70 -2 17 -4 1 -4 -38z"/>
<path d="M4782 1275 c0 -16 2 -22 5 -12 2 9 2 23 0 30 -3 6 -5 -1 -5 -18z"/>
<path d="M4773 1195 c0 -27 2 -38 4 -22 2 15 2 37 0 50 -2 12 -4 0 -4 -28z"/>
<path d="M791 1184 c0 -16 4 -38 9 -49 6 -13 7 -5 3 25 -7 53 -13 66 -12 24z"/>
<path d="M5751 1194 c0 -11 3 -14 6 -6 3 7 2 16 -1 19 -3 4 -6 -2 -5 -13z"/>
<path d="M1722 1150 c0 -14 2 -19 5 -12 2 6 2 18 0 25 -3 6 -5 1 -5 -13z"/>
<path d="M5762 1110 c0 -19 2 -27 5 -17 2 9 2 25 0 35 -3 9 -5 1 -5 -18z"/>
<path d="M4782 1110 c0 -14 2 -19 5 -12 2 6 2 18 0 25 -3 6 -5 1 -5 -13z"/>
<path d="M9134 1020 c0 -63 1 -89 3 -57 2 31 2 83 0 115 -2 31 -3 5 -3 -58z"/>
<path d="M820 1076 c0 -11 30 -66 36 -66 2 0 -3 15 -12 33 -19 36 -24 44 -24
33z"/>
<path d="M4791 1064 c0 -11 3 -14 6 -6 3 7 2 16 -1 19 -3 4 -6 -2 -5 -13z"/>
<path d="M1685 1049 c-4 -6 -5 -12 -2 -15 2 -3 7 2 10 11 7 17 1 20 -8 4z"/>
<path d="M5752 1040 c0 -14 2 -19 5 -12 2 6 2 18 0 25 -3 6 -5 1 -5 -13z"/>
<path d="M9413 975 c0 -44 2 -61 4 -37 2 23 2 59 0 80 -2 20 -4 1 -4 -43z"/>
<path d="M4800 1035 c0 -5 5 -17 10 -25 5 -8 10 -10 10 -5 0 6 -5 17 -10 25
-5 8 -10 11 -10 5z"/>
<path d="M5726 955 c-9 -26 -7 -32 5 -12 6 10 9 21 6 23 -2 3 -7 -2 -11 -11z"/>
<path d="M1589 913 l-24 -28 28 24 c25 23 32 31 24 31 -2 0 -14 -12 -28 -27z"/>
<path d="M1020 845 c0 -7 61 -37 66 -33 2 3 -12 12 -31 21 -19 9 -35 15 -35
12z"/>
<path d="M8929 793 l-34 -38 38 34 c34 33 42 41 34 41 -2 0 -19 -17 -38 -37z"/>
<path d="M4950 785 c13 -14 26 -25 28 -25 3 0 -5 11 -18 25 -13 14 -26 25 -28
25 -3 0 5 -11 18 -25z"/>
<path d="M1173 783 c9 -2 23 -2 30 0 6 3 -1 5 -18 5 -16 0 -22 -2 -12 -5z"/>
<path d="M1323 783 c9 -2 25 -2 35 0 9 3 1 5 -18 5 -19 0 -27 -2 -17 -5z"/>
<path d="M1238 773 c12 -2 30 -2 40 0 9 3 -1 5 -23 4 -22 0 -30 -2 -17 -4z"/>
<path d="M5074 696 c11 -9 24 -16 30 -16 12 0 7 5 -24 19 -24 11 -24 11 -6 -3z"/>
<path d="M8850 690 c-6 -11 -8 -20 -6 -20 3 0 10 9 16 20 6 11 8 20 6 20 -3 0
-10 -9 -16 -20z"/>
<path d="M9670 690 c6 -11 13 -20 16 -20 2 0 0 9 -6 20 -6 11 -13 20 -16 20
-2 0 0 -9 6 -20z"/>
<path d="M5400 664 c-31 -8 -37 -13 -20 -13 14 0 39 6 55 14 37 17 24 16 -35
-1z"/>
<path d="M5160 660 c8 -5 24 -10 34 -10 26 0 18 6 -19 14 -22 5 -26 4 -15 -4z"/>
<path d="M5247 643 c18 -2 50 -2 70 0 21 2 7 4 -32 4 -38 0 -55 -2 -38 -4z"/>
<path d="M8811 609 c-6 -18 -11 -39 -10 -48 0 -9 7 4 14 29 16 51 13 67 -4 19z"/>
<path d="M9721 564 c0 -11 3 -14 6 -6 3 7 2 16 -1 19 -3 4 -6 -2 -5 -13z"/>
<path d="M8792 464 c-2 -72 21 -194 34 -181 2 2 -1 17 -7 33 -7 16 -15 74 -19
129 l-7 100 -1 -81z"/>
<path d="M9732 510 c0 -14 2 -19 5 -12 2 6 2 18 0 25 -3 6 -5 1 -5 -13z"/>
<path d="M9732 405 c0 -16 2 -22 5 -12 2 9 2 23 0 30 -3 6 -5 -1 -5 -18z"/>
<path d="M9721 354 c0 -11 3 -14 6 -6 3 7 2 16 -1 19 -3 4 -6 -2 -5 -13z"/>
<path d="M9020 55 c0 -7 61 -37 66 -33 2 3 -12 12 -31 21 -19 9 -35 15 -35 12z"/>
<path d="M9460 35 c-14 -8 -20 -14 -14 -15 5 0 19 7 30 15 24 18 16 19 -16 0z"/>
<path d="M9395 10 c-13 -6 -15 -9 -5 -9 8 0 22 4 30 9 18 12 2 12 -25 0z"/>
</g>
</svg>
